<svg height="770.5999984741211" version="1.1" width="385.3999938964844" xmlns="http://www.w3.org/2000/svg" xmlns:xlink="http://www.w3.org/1999/xlink" style="overflow: hidden; position: relative;" viewBox="0 0 385.3999938964844 770.5999984741211" preserveAspectRatio="xMidYMid meet"><desc>Created with Raphaël 2.3.0</desc><defs><path stroke-linecap="round" d="M5,0 0,2.5 5,5z" id="raphael-marker-block"></path><marker id="raphael-marker-endblock33-objpz59n" markerHeight="3" markerWidth="3" orient="auto" refX="1.5" refY="1.5"><use xlink:href="#raphael-marker-block" transform="rotate(180 1.5 1.5) scale(0.6,0.6)" stroke-width="1.6667" fill="#2979ff" stroke="none"></use></marker><marker id="raphael-marker-endblock33-objob1th" markerHeight="3" markerWidth="3" orient="auto" refX="1.5" refY="1.5"><use xlink:href="#raphael-marker-block" transform="rotate(180 1.5 1.5) scale(0.6,0.6)" stroke-width="1.6667" fill="#2979ff" stroke="none"></use></marker><marker id="raphael-marker-endblock33-objiv55q" markerHeight="3" markerWidth="3" orient="auto" refX="1.5" refY="1.5"><use xlink:href="#raphael-marker-block" transform="rotate(180 1.5 1.5) scale(0.6,0.6)" stroke-width="1.6667" fill="#2979ff" stroke="none"></use></marker><marker id="raphael-marker-endblock33-objvmx6s" markerHeight="3" markerWidth="3" orient="auto" refX="1.5" refY="1.5"><use xlink:href="#raphael-marker-block" transform="rotate(180 1.5 1.5) scale(0.6,0.6)" stroke-width="1.6667" fill="#2979ff" stroke="none"></use></marker></defs><rect x="0" y="0" width="259.6000061035156" height="98.19999694824219" rx="0" ry="0" fill="none" stroke="#2979ff" style="" stroke-width="2" class="flowchart" id="op" transform="matrix(1,0,0,1,63.9,13.6)"></rect><text style="text-anchor: start; font-family: &quot;Andale Mono&quot;, monospace; font-size: 16px;" x="10" y="49.099998474121094" text-anchor="start" font-family="'Andale Mono', monospace" font-size="16px" stroke="none" fill="#2979ff" id="opt" class="flowchartt" transform="matrix(1,0,0,1,63.9,13.6)" stroke-width="1"><tspan dy="-4.100002288818359">CSGO sends a log message</tspan><tspan dy="19.2" x="10">containing a match event</tspan></text><rect x="0" y="0" width="179.73333740234375" height="98.19999694824219" rx="0" ry="0" fill="none" stroke="#2979ff" style="" stroke-width="2" class="flowchart" id="op2" transform="matrix(1,0,0,1,103.8333,175.4)"></rect><text style="text-anchor: start; font-family: &quot;Andale Mono&quot;, monospace; font-size: 16px;" x="10" y="49.099998474121094" text-anchor="start" font-family="'Andale Mono', monospace" font-size="16px" stroke="none" fill="#2979ff" id="op2t" class="flowchartt" transform="matrix(1,0,0,1,103.8333,175.4)" stroke-width="1"><tspan dy="-4.100002288818359">The log listener</tspan><tspan dy="19.2" x="10">receives the log</tspan></text><rect x="0" y="0" width="199.6999969482422" height="98.19999694824219" rx="0" ry="0" fill="none" stroke="#2979ff" style="" stroke-width="2" class="flowchart" id="para" transform="matrix(1,0,0,1,93.85,337.2)"></rect><text style="text-anchor: start; font-family: &quot;Andale Mono&quot;, monospace; font-size: 16px;" x="10" y="49.099998474121094" text-anchor="start" font-family="'Andale Mono', monospace" font-size="16px" stroke="none" fill="#2979ff" id="parat" class="flowchartt" transform="matrix(1,0,0,1,93.85,337.2)" stroke-width="1"><tspan dy="-4.100002288818359">The log parser</tspan><tspan dy="19.2" x="10">parses the message</tspan></text><rect x="0" y="0" width="339.4666748046875" height="117.4000015258789" rx="0" ry="0" fill="none" stroke="#2979ff" style="" stroke-width="2" class="flowchart" id="op4" transform="matrix(1,0,0,1,23.9667,489.4)"></rect><text style="text-anchor: start; font-family: &quot;Andale Mono&quot;, monospace; font-size: 16px;" x="10" y="58.70000076293945" text-anchor="start" font-family="'Andale Mono', monospace" font-size="16px" stroke="none" fill="#2979ff" id="op4t" class="flowchartt" transform="matrix(1,0,0,1,23.9667,489.4)" stroke-width="1"><tspan dy="-13.700004577636719">The message is handled</tspan><tspan dy="19.2" x="10">internally (database changes...)</tspan><tspan dy="19.2" x="10">by the proper EventHandler</tspan></text><rect x="0" y="0" width="379.3999938964844" height="98.19999694824219" rx="0" ry="0" fill="none" stroke="#2979ff" style="" stroke-width="2" class="flowchart" id="op5" transform="matrix(1,0,0,1,4,670.4)"></rect><text style="text-anchor: start; font-family: &quot;Andale Mono&quot;, monospace; font-size: 16px;" x="10" y="49.099998474121094" text-anchor="start" font-family="'Andale Mono', monospace" font-size="16px" stroke="none" fill="#2979ff" id="op5t" class="flowchartt" transform="matrix(1,0,0,1,4,670.4)" stroke-width="1"><tspan dy="-4.100002288818359">The change is optionally broadcasted</tspan><tspan dy="19.2" x="10">to the frontend via websocket</tspan></text><path style="font-family: &quot;Andale Mono&quot;, monospace;" fill="none" stroke="#2979ff" d="M193.6999969482422,111.79999923706055C193.6999969482422,111.79999923706055,193.6999969482422,159.78981944173483,193.6999969482422,172.39652025722057" stroke-width="2" marker-end="url(#raphael-marker-endblock33-objpz59n)" font-family="'Andale Mono', monospace"></path><path style="font-family: &quot;Andale Mono&quot;, monospace;" fill="none" stroke="#2979ff" d="M193.6999969482422,273.5999984741211C193.6999969482422,273.5999984741211,193.6999969482422,321.5898186787954,193.6999969482422,334.1965194942811" stroke-width="2" marker-end="url(#raphael-marker-endblock33-objob1th)" font-family="'Andale Mono', monospace"></path><path style="font-family: &quot;Andale Mono&quot;, monospace;" fill="none" stroke="#2979ff" d="M193.6999969482422,435.39999771118164C193.6999969482422,435.39999771118164,193.6999969482422,475.0540976524353,193.6999969482422,486.4004367957823" stroke-width="2" marker-end="url(#raphael-marker-endblock33-objiv55q)" font-family="'Andale Mono', monospace"></path><path style="font-family: &quot;Andale Mono&quot;, monospace;" fill="none" stroke="#2979ff" d="M193.6999969482422,606.7999992370605C193.6999969482422,606.7999992370605,193.6999969482422,654.7898194417348,193.6999969482422,667.3965202572206" stroke-width="2" marker-end="url(#raphael-marker-endblock33-objvmx6s)" font-family="'Andale Mono', monospace"></path></svg>
