<svg height="1429.3999977111816" version="1.1" width="205.6999969482422" xmlns="http://www.w3.org/2000/svg" xmlns:xlink="http://www.w3.org/1999/xlink" style="overflow: hidden; position: relative; left: -0.650024px; top: -0.383331px;" viewBox="0 0 205.6999969482422 1429.3999977111816" preserveAspectRatio="xMidYMid meet"><desc>Created with Raphaël 2.3.0</desc><defs><path stroke-linecap="round" d="M5,0 0,2.5 5,5z" id="raphael-marker-block"></path><marker id="raphael-marker-endblock33-objwbot4" markerHeight="3" markerWidth="3" orient="auto" refX="1.5" refY="1.5"><use xlink:href="#raphael-marker-block" transform="rotate(180 1.5 1.5) scale(0.6,0.6)" stroke-width="1.6667" fill="black" stroke="none"></use></marker><marker id="raphael-marker-endblock33-objjvkfz" markerHeight="3" markerWidth="3" orient="auto" refX="1.5" refY="1.5"><use xlink:href="#raphael-marker-block" transform="rotate(180 1.5 1.5) scale(0.6,0.6)" stroke-width="1.6667" fill="black" stroke="none"></use></marker><marker id="raphael-marker-endblock33-obj6v708" markerHeight="3" markerWidth="3" orient="auto" refX="1.5" refY="1.5"><use xlink:href="#raphael-marker-block" transform="rotate(180 1.5 1.5) scale(0.6,0.6)" stroke-width="1.6667" fill="black" stroke="none"></use></marker><marker id="raphael-marker-endblock33-objlqjqh" markerHeight="3" markerWidth="3" orient="auto" refX="1.5" refY="1.5"><use xlink:href="#raphael-marker-block" transform="rotate(180 1.5 1.5) scale(0.6,0.6)" stroke-width="1.6667" fill="black" stroke="none"></use></marker><marker id="raphael-marker-endblock33-objxkyp3" markerHeight="3" markerWidth="3" orient="auto" refX="1.5" refY="1.5"><use xlink:href="#raphael-marker-block" transform="rotate(180 1.5 1.5) scale(0.6,0.6)" stroke-width="1.6667" fill="black" stroke="none"></use></marker><marker id="raphael-marker-endblock33-obje1tr4" markerHeight="3" markerWidth="3" orient="auto" refX="1.5" refY="1.5"><use xlink:href="#raphael-marker-block" transform="rotate(180 1.5 1.5) scale(0.6,0.6)" stroke-width="1.6667" fill="black" stroke="none"></use></marker><marker id="raphael-marker-endblock33-obj1ykg1" markerHeight="3" markerWidth="3" orient="auto" refX="1.5" refY="1.5"><use xlink:href="#raphael-marker-block" transform="rotate(180 1.5 1.5) scale(0.6,0.6)" stroke-width="1.6667" fill="black" stroke="none"></use></marker><marker id="raphael-marker-endblock33-objwjqcz" markerHeight="3" markerWidth="3" orient="auto" refX="1.5" refY="1.5"><use xlink:href="#raphael-marker-block" transform="rotate(180 1.5 1.5) scale(0.6,0.6)" stroke-width="1.6667" fill="black" stroke="none"></use></marker><marker id="raphael-marker-endblock33-obj9wsd2" markerHeight="3" markerWidth="3" orient="auto" refX="1.5" refY="1.5"><use xlink:href="#raphael-marker-block" transform="rotate(180 1.5 1.5) scale(0.6,0.6)" stroke-width="1.6667" fill="black" stroke="none"></use></marker></defs><rect x="0" y="0" width="169.75" height="80.29999923706055" rx="0" ry="0" fill="none" stroke="#2979ff" style="" stroke-width="2" class="flowchart" id="op" transform="matrix(1,0,0,1,18.975,13.6)"></rect><text style="text-anchor: start; font-family: &quot;Andale Mono&quot;, monospace; font-size: 16px;" x="10" y="40.14999961853027" text-anchor="start" font-family="'Andale Mono', monospace" font-size="16px" stroke="none" fill="#2979ff" id="opt" class="flowchartt" transform="matrix(1,0,0,1,18.975,13.6)" stroke-width="1"><tspan dy="5.583332061767578">Knife Round (*)</tspan></text><rect x="0" y="0" width="189.71665954589844" height="80.29999923706055" rx="0" ry="0" fill="none" stroke="#2979ff" style="" stroke-width="2" class="flowchart" id="op2" transform="matrix(1,0,0,1,8.9917,157.5)"></rect><text style="text-anchor: start; font-family: &quot;Andale Mono&quot;, monospace; font-size: 16px;" x="10" y="40.14999961853027" text-anchor="start" font-family="'Andale Mono', monospace" font-size="16px" stroke="none" fill="#2979ff" id="op2t" class="flowchartt" transform="matrix(1,0,0,1,8.9917,157.5)" stroke-width="1"><tspan dy="5.583332061767578">Warmup first side</tspan></text><rect x="0" y="0" width="189.71665954589844" height="99.5" rx="0" ry="0" fill="none" stroke="#2979ff" style="" stroke-width="2" class="flowchart" id="op3" transform="matrix(1,0,0,1,8.9917,291.8)"></rect><text style="text-anchor: start; font-family: &quot;Andale Mono&quot;, monospace; font-size: 16px;" x="10" y="49.75" text-anchor="start" font-family="'Andale Mono', monospace" font-size="16px" stroke="none" fill="#2979ff" id="op3t" class="flowchartt" transform="matrix(1,0,0,1,8.9917,291.8)" stroke-width="1"><tspan dy="-4.016666412353516">Warmup first side</tspan><tspan dy="19.2" x="10">Overtime (*)</tspan></text><rect x="0" y="0" width="119.83333587646484" height="80.29999923706055" rx="0" ry="0" fill="none" stroke="#2979ff" style="" stroke-width="2" class="flowchart" id="op4" transform="matrix(1,0,0,1,43.9333,454.9)"></rect><text style="text-anchor: start; font-family: &quot;Andale Mono&quot;, monospace; font-size: 16px;" x="10" y="40.14999961853027" text-anchor="start" font-family="'Andale Mono', monospace" font-size="16px" stroke="none" fill="#2979ff" id="op4t" class="flowchartt" transform="matrix(1,0,0,1,43.9333,454.9)" stroke-width="1"><tspan dy="5.583332061767578">First side</tspan></text><rect x="0" y="0" width="139.8000030517578" height="99.5" rx="0" ry="0" fill="none" stroke="#2979ff" style="" stroke-width="2" class="flowchart" id="op5" transform="matrix(1,0,0,1,33.95,589.2)"></rect><text style="text-anchor: start; font-family: &quot;Andale Mono&quot;, monospace; font-size: 16px;" x="10" y="49.75" text-anchor="start" font-family="'Andale Mono', monospace" font-size="16px" stroke="none" fill="#2979ff" id="op5t" class="flowchartt" transform="matrix(1,0,0,1,33.95,589.2)" stroke-width="1"><tspan dy="-4.016666412353516">First side</tspan><tspan dy="19.2" x="10">Overtime (*)</tspan></text><rect x="0" y="0" width="199.6999969482422" height="80.29999923706055" rx="0" ry="0" fill="none" stroke="#2979ff" style="" stroke-width="2" class="flowchart" id="op6" transform="matrix(1,0,0,1,4,752.3)"></rect><text style="text-anchor: start; font-family: &quot;Andale Mono&quot;, monospace; font-size: 16px;" x="10" y="40.14999961853027" text-anchor="start" font-family="'Andale Mono', monospace" font-size="16px" stroke="none" fill="#2979ff" id="op6t" class="flowchartt" transform="matrix(1,0,0,1,4,752.3)" stroke-width="1"><tspan dy="5.583332061767578">Warmup second side</tspan></text><rect x="0" y="0" width="199.6999969482422" height="99.5" rx="0" ry="0" fill="none" stroke="#2979ff" style="" stroke-width="2" class="flowchart" id="op7" transform="matrix(1,0,0,1,4,886.6)"></rect><text style="text-anchor: start; font-family: &quot;Andale Mono&quot;, monospace; font-size: 16px;" x="10" y="49.75" text-anchor="start" font-family="'Andale Mono', monospace" font-size="16px" stroke="none" fill="#2979ff" id="op7t" class="flowchartt" transform="matrix(1,0,0,1,4,886.6)" stroke-width="1"><tspan dy="-4.016666412353516">Warmup second side</tspan><tspan dy="19.2" x="10">Overtime (*)</tspan></text><rect x="0" y="0" width="129.81666564941406" height="80.29999923706055" rx="0" ry="0" fill="none" stroke="#2979ff" style="" stroke-width="2" class="flowchart" id="op8" transform="matrix(1,0,0,1,38.9417,1049.7)"></rect><text style="text-anchor: start; font-family: &quot;Andale Mono&quot;, monospace; font-size: 16px;" x="10" y="40.14999961853027" text-anchor="start" font-family="'Andale Mono', monospace" font-size="16px" stroke="none" fill="#2979ff" id="op8t" class="flowchartt" transform="matrix(1,0,0,1,38.9417,1049.7)" stroke-width="1"><tspan dy="5.583332061767578">Second side</tspan></text><rect x="0" y="0" width="139.8000030517578" height="99.5" rx="0" ry="0" fill="none" stroke="#2979ff" style="" stroke-width="2" class="flowchart" id="op9" transform="matrix(1,0,0,1,33.95,1184)"></rect><text style="text-anchor: start; font-family: &quot;Andale Mono&quot;, monospace; font-size: 16px;" x="10" y="49.75" text-anchor="start" font-family="'Andale Mono', monospace" font-size="16px" stroke="none" fill="#2979ff" id="op9t" class="flowchartt" transform="matrix(1,0,0,1,33.95,1184)" stroke-width="1"><tspan dy="-4.016666412353516">Second side</tspan><tspan dy="19.2" x="10">Overtime (*)</tspan></text><rect x="0" y="0" width="49.95000076293945" height="80.29999923706055" rx="0" ry="0" fill="none" stroke="#2979ff" style="" stroke-width="2" class="flowchart" id="end" transform="matrix(1,0,0,1,78.875,1347.1)"></rect><text style="text-anchor: start; font-family: &quot;Andale Mono&quot;, monospace; font-size: 16px;" x="10" y="40.14999961853027" text-anchor="start" font-family="'Andale Mono', monospace" font-size="16px" stroke="none" fill="#2979ff" id="endt" class="flowchartt" transform="matrix(1,0,0,1,78.875,1347.1)" stroke-width="1"><tspan dy="5.583332061767578">End</tspan></text><path style="font-family: &quot;Andale Mono&quot;, monospace;" fill="none" stroke="#2979ff" d="M103.8499984741211,93.89999961853027C103.8499984741211,93.89999961853027,103.8499984741211,141.8898183840015,103.8499984741211,154.49651882141532" stroke-width="2" marker-end="url(#raphael-marker-endblock33-objwbot4)" font-family="'Andale Mono', monospace"></path><path style="font-family: &quot;Andale Mono&quot;, monospace;" fill="none" stroke="#2979ff" d="M103.8499984741211,237.79999923706055C103.8499984741211,237.79999923706055,103.8499984741211,277.4540991783142,103.8499984741211,288.8004383216612" stroke-width="2" marker-end="url(#raphael-marker-endblock33-objjvkfz)" font-family="'Andale Mono', monospace"></path><path style="font-family: &quot;Andale Mono&quot;, monospace;" fill="none" stroke="#2979ff" d="M103.8499984741211,391.29999923706055C103.8499984741211,391.29999923706055,103.8499984741211,439.2898180025318,103.8499984741211,451.89651843994557" stroke-width="2" marker-end="url(#raphael-marker-endblock33-obj6v708)" font-family="'Andale Mono', monospace"></path><path style="font-family: &quot;Andale Mono&quot;, monospace;" fill="none" stroke="#2979ff" d="M103.8499984741211,535.1999988555908C103.8499984741211,535.1999988555908,103.8499984741211,574.8540987968445,103.8499984741211,586.2004379401915" stroke-width="2" marker-end="url(#raphael-marker-endblock33-objlqjqh)" font-family="'Andale Mono', monospace"></path><path style="font-family: &quot;Andale Mono&quot;, monospace;" fill="none" stroke="#2979ff" d="M103.8499984741211,688.6999988555908C103.8499984741211,688.6999988555908,103.8499984741211,736.689817621062,103.8499984741211,749.2965180584758" stroke-width="2" marker-end="url(#raphael-marker-endblock33-objxkyp3)" font-family="'Andale Mono', monospace"></path><path style="font-family: &quot;Andale Mono&quot;, monospace;" fill="none" stroke="#2979ff" d="M103.8499984741211,832.5999984741211C103.8499984741211,832.5999984741211,103.8499984741211,872.2540984153748,103.8499984741211,883.6004375587218" stroke-width="2" marker-end="url(#raphael-marker-endblock33-obje1tr4)" font-family="'Andale Mono', monospace"></path><path style="font-family: &quot;Andale Mono&quot;, monospace;" fill="none" stroke="#2979ff" d="M103.8499984741211,986.0999984741211C103.8499984741211,986.0999984741211,103.8499984741211,1034.0898172395923,103.8499984741211,1046.696517677006" stroke-width="2" marker-end="url(#raphael-marker-endblock33-obj1ykg1)" font-family="'Andale Mono', monospace"></path><path style="font-family: &quot;Andale Mono&quot;, monospace;" fill="none" stroke="#2979ff" d="M103.8499984741211,1129.9999980926514C103.8499984741211,1129.9999980926514,103.8499984741211,1169.654098033905,103.8499984741211,1181.000437177252" stroke-width="2" marker-end="url(#raphael-marker-endblock33-objwjqcz)" font-family="'Andale Mono', monospace"></path><path style="font-family: &quot;Andale Mono&quot;, monospace;" fill="none" stroke="#2979ff" d="M103.8499984741211,1283.4999980926514C103.8499984741211,1283.4999980926514,103.8499984741211,1331.4898168581226,103.8499984741211,1344.0965172955364" stroke-width="2" marker-end="url(#raphael-marker-endblock33-obj9wsd2)" font-family="'Andale Mono', monospace"></path></svg>
